<svg width="50" height="50" viewBox="0 0 50 50" fill="none" xmlns="http://www.w3.org/2000/svg">
<g clip-path="url(#clip0_18_4)">
<path d="M50 42.7083V0H0V42.7083H15.625V47.9167H11.4583V50H38.5417V47.9167H34.375V42.7083H50ZM2.08333 2.08333H47.9167V4.16667H2.08333V2.08333ZM2.08333 6.25H47.9167V20.8333H2.08333V6.25ZM2.08333 22.9167H47.9167V35.4167H2.08333V22.9167ZM32.2917 47.9167H17.7083V42.7083H32.2917V47.9167ZM2.08333 40.625V37.5H47.9167V40.625H2.08333Z" fill="#B45058"/>
<path d="M40.3198 8.63843L38.8469 10.1114L42.277 13.5416L38.8469 16.9718L40.3198 18.4447L45.223 13.5416L40.3198 8.63843Z" fill="#B45058"/>
<path d="M11.1531 10.1114L9.68017 8.63843L4.77701 13.5416L9.68017 18.4447L11.1531 16.9718L7.72297 13.5416L11.1531 10.1114Z" fill="#B45058"/>
<path d="M4.16666 25V33.3333H16.6667V25H4.16666ZM14.5833 31.25H6.24999V27.0833H14.5833V31.25Z" fill="#B45058"/>
<path d="M18.75 25V33.3333H31.25V25H18.75ZM29.1667 31.25H20.8333V27.0833H29.1667V31.25Z" fill="#B45058"/>
<path d="M33.3333 25V33.3333H45.8333V25H33.3333ZM43.75 31.25H35.4166V27.0833H43.75V31.25Z" fill="#B45058"/>
</g>
<defs>
<clipPath id="clip0_18_4">
<rect width="50" height="50" fill="white"/>
</clipPath>
</defs>
</svg>
