<svg width="50" height="50" viewBox="0 0 50 50" fill="none" xmlns="http://www.w3.org/2000/svg">
<path d="M22.1452 24.7853C22.1276 24.6988 22.102 24.6136 22.0683 24.5327C22.0345 24.4516 21.9927 24.3733 21.9441 24.3003C21.8941 24.226 21.8387 24.1572 21.7766 24.095C21.7131 24.0316 21.6443 23.9762 21.5699 23.9262C21.497 23.8776 21.4187 23.8358 21.3377 23.802C21.2553 23.7682 21.1702 23.7426 21.0852 23.725C20.9109 23.69 20.7314 23.69 20.5571 23.725C20.4707 23.7426 20.3857 23.7683 20.3046 23.802C20.2222 23.8358 20.1439 23.8776 20.071 23.9262C19.9967 23.9762 19.9278 24.0316 19.8657 24.095C19.8036 24.1572 19.7469 24.226 19.6983 24.3003C19.6496 24.3733 19.6077 24.4516 19.574 24.5327C19.5402 24.6138 19.5147 24.6988 19.4971 24.7853C19.4795 24.8729 19.47 24.9622 19.47 25.0499C19.47 25.1375 19.4795 25.2269 19.4971 25.3131C19.5147 25.3996 19.5403 25.4848 19.574 25.5656C19.6078 25.6481 19.6496 25.7264 19.6983 25.7992C19.7469 25.8736 19.8036 25.9424 19.8657 26.0045C19.9278 26.0666 19.9981 26.1234 20.071 26.172C20.144 26.2206 20.2223 26.2624 20.3046 26.2962C20.3857 26.33 20.4707 26.3556 20.5571 26.3732C20.6436 26.3907 20.7327 26.4002 20.8205 26.4002C20.9083 26.4002 20.9974 26.3907 21.0852 26.3732C21.1702 26.3556 21.2553 26.3299 21.3377 26.2962C21.4188 26.2624 21.4971 26.2206 21.5699 26.172C21.6443 26.1234 21.7131 26.0666 21.7766 26.0045C21.8387 25.9424 21.8941 25.8736 21.9441 25.7992C21.9927 25.7263 22.0345 25.648 22.0683 25.5656C22.1021 25.4846 22.1276 25.3996 22.1452 25.3131C22.1628 25.2267 22.1709 25.1375 22.1709 25.0499C22.1708 24.9621 22.1627 24.8729 22.1452 24.7853Z" fill="#B45058"/>
<path d="M37.9735 17.3606C37.9114 17.2985 37.8426 17.2431 37.7682 17.1931C37.6953 17.1447 37.617 17.1026 37.5346 17.0689C37.4536 17.0351 37.3685 17.0096 37.2821 16.9919C37.1079 16.9568 36.9297 16.9568 36.7554 16.9919C36.669 17.0096 36.584 17.0352 36.5029 17.0689C36.4205 17.1027 36.3422 17.1447 36.2693 17.1931C36.195 17.2431 36.1261 17.2985 36.064 17.3606C35.8129 17.6131 35.6683 17.9616 35.6683 18.3167C35.6683 18.6718 35.8129 19.0189 36.064 19.2714C36.1261 19.3335 36.195 19.3903 36.2693 19.4387C36.3423 19.4874 36.4206 19.5291 36.5029 19.5629C36.584 19.5967 36.669 19.6223 36.7554 19.6399C36.8419 19.6575 36.931 19.6656 37.0188 19.6656C37.1066 19.6656 37.1957 19.6574 37.2822 19.6399C37.3686 19.6223 37.4537 19.5966 37.5347 19.5629C37.6172 19.5291 37.6955 19.4874 37.7683 19.4387C37.8427 19.3903 37.9115 19.3335 37.9736 19.2714C38.2248 19.0189 38.3693 18.6718 38.3693 18.3167C38.3691 17.9615 38.2247 17.6131 37.9735 17.3606Z" fill="#B45058"/>
<path d="M43.392 0.240623C43.0284 -0.0115255 42.5643 -0.069338 42.1493 0.0853495L14.9464 10.2544C14.4186 10.4517 14.0687 10.956 14.0687 11.5193V20.9979V33.8569C9.63192 33.8735 6.02753 37.4874 6.02753 41.928C6.02753 46.3789 9.64852 49.9999 14.0994 49.9999C18.5503 49.9999 22.1713 46.3789 22.1713 41.928V29.1007C22.1713 28.355 21.5667 27.7503 20.8209 27.7503C20.0751 27.7503 19.4705 28.355 19.4705 29.1007V35.9094C18.6908 35.2128 17.7756 34.6659 16.7696 34.3122V21.9349L41.2719 12.7753V31.1417C40.4403 30.3988 39.4548 29.8257 38.3692 29.4761V22.3672C38.3692 21.6215 37.7646 21.0168 37.0188 21.0168C36.273 21.0168 35.6684 21.6215 35.6684 22.3672V29.0944C31.325 29.2182 27.8288 32.7874 27.8288 37.1603C27.8288 41.6112 31.4498 45.2322 35.9007 45.2322C40.3516 45.2322 43.9725 41.6112 43.9725 37.1603V10.8289V1.35029C43.9726 0.90742 43.7557 0.492967 43.392 0.240623ZM19.4704 41.928C19.4704 44.8896 17.0609 47.2991 14.0994 47.2991C11.1378 47.2991 8.72831 44.8895 8.72831 41.928C8.72831 38.9665 11.1378 36.5571 14.0994 36.5571C17.0609 36.5571 19.4704 38.9665 19.4704 41.928ZM35.9008 42.5317C32.9391 42.5317 30.5298 40.1223 30.5298 37.1607C30.5298 34.1991 32.9392 31.7898 35.9008 31.7898C38.8624 31.7898 41.2719 34.1993 41.2719 37.1607C41.2718 40.1223 38.8624 42.5317 35.9008 42.5317ZM41.2718 9.89209L16.7695 19.0517V12.4563L41.2718 3.29678V9.89209Z" fill="#B45058"/>
</svg>
