<svg width="50" height="50" viewBox="0 0 50 50" fill="none" xmlns="http://www.w3.org/2000/svg">
<path d="M18.0926 22.2037L27.0833 17.7084M31.9077 34.7038L22.9167 30.2083M43.75 12.5C43.75 15.9518 40.9519 18.75 37.5 18.75C34.0481 18.75 31.25 15.9518 31.25 12.5C31.25 9.04823 34.0481 6.25 37.5 6.25C40.9519 6.25 43.75 9.04823 43.75 12.5ZM18.75 25C18.75 28.4519 15.9518 31.25 12.5 31.25C9.04823 31.25 6.25 28.4519 6.25 25C6.25 21.5481 9.04823 18.75 12.5 18.75C15.9518 18.75 18.75 21.5481 18.75 25ZM43.75 37.5C43.75 40.9519 40.9519 43.75 37.5 43.75C34.0481 43.75 31.25 40.9519 31.25 37.5C31.25 34.0481 34.0481 31.25 37.5 31.25C40.9519 31.25 43.75 34.0481 43.75 37.5Z" stroke="#B45058" stroke-width="3"/>
</svg>
