<svg width="442" height="442" viewBox="0 0 442 442" fill="none" xmlns="http://www.w3.org/2000/svg">
<circle cx="221" cy="221" r="221" fill="#B45058"/>
<path d="M54.96 190.2V192.12H39.92V235H38V192.12H22.96V190.2H54.96ZM65.4095 233.08H86.2735L73.1535 202.168L59.2015 235H57.1535L73.1535 197.24L89.1535 235H65.4095V233.08ZM112.071 216.376L120.775 235H118.663L109.703 215.8C109.788 215.757 110.151 215.587 110.791 215.288C111.474 214.947 111.943 214.712 112.199 214.584C112.455 214.413 112.882 214.136 113.479 213.752C114.076 213.368 114.524 213.005 114.823 212.664C115.122 212.28 115.442 211.853 115.783 211.384C116.167 210.872 116.444 210.317 116.615 209.72C116.786 209.08 116.871 208.397 116.871 207.672C116.871 204.984 115.591 203 113.031 201.72C110.471 200.44 107.292 199.8 103.495 199.8H98.375V235H96.455V197.88H103.495C108.53 197.88 112.327 198.755 114.887 200.504C117.49 202.253 118.791 204.643 118.791 207.672C118.791 209.635 118.13 211.384 116.807 212.92C115.484 214.413 113.906 215.565 112.071 216.376ZM124.335 237.496C125.487 243.085 128.794 245.88 134.255 245.88C137.796 245.88 140.143 244.877 141.295 242.872C142.447 240.909 143.023 238.029 143.023 234.232V197.88H144.943V234.232C144.943 235.427 144.922 236.387 144.879 237.112C144.836 237.837 144.73 238.819 144.559 240.056C144.388 241.293 144.068 242.275 143.599 243C143.13 243.768 142.511 244.557 141.743 245.368C141.018 246.221 140.015 246.84 138.735 247.224C137.455 247.608 135.962 247.8 134.255 247.8C127.556 247.8 123.482 244.365 122.031 237.496H124.335ZM181.912 231.224C179.565 234.168 175.725 235.64 170.392 235.64C165.059 235.64 161.24 234.125 158.936 231.096C156.632 228.067 155.48 223.181 155.48 216.44C155.48 209.699 156.632 204.813 158.936 201.784C161.24 198.755 165.059 197.24 170.392 197.24C176.579 197.24 180.781 199.267 183 203.32L167.32 216.44H164.312L180.504 202.936C178.627 200.419 175.256 199.16 170.392 199.16C168.259 199.16 166.467 199.395 165.016 199.864C163.565 200.291 162.221 201.123 160.984 202.36C159.789 203.555 158.893 205.325 158.296 207.672C157.699 209.976 157.4 212.899 157.4 216.44C157.4 219.981 157.699 222.925 158.296 225.272C158.893 227.576 159.789 229.347 160.984 230.584C162.221 231.779 163.565 232.611 165.016 233.08C166.467 233.507 168.259 233.72 170.392 233.72C175.256 233.72 178.627 232.461 180.504 229.944L181.912 231.224ZM216.143 197.88V199.8H202.703V235H200.783V199.8H187.343V197.88H216.143ZM226.91 233.08H247.774L234.654 202.168L220.702 235H218.654L234.654 197.24L250.654 235H226.91V233.08ZM267.747 197.112C273.038 197.112 276.792 198.285 279.011 200.632L277.731 202.04C275.683 200.035 272.44 199.032 268.003 199.032C261.347 199.032 258.019 201.677 258.019 206.968C258.019 209.016 258.83 210.659 260.451 211.896C262.072 213.091 264.035 214.008 266.339 214.648C268.686 215.288 271.011 215.971 273.315 216.696C275.662 217.379 277.646 218.509 279.267 220.088C280.888 221.624 281.699 223.651 281.699 226.168C281.699 229.112 280.483 231.459 278.051 233.208C275.619 234.957 272.099 235.832 267.491 235.832C265.23 235.832 262.99 235.533 260.771 234.936C258.595 234.339 256.974 233.464 255.907 232.312L257.187 230.904C259.363 232.909 262.712 233.912 267.235 233.912C271.374 233.912 274.488 233.144 276.579 231.608C278.712 230.072 279.779 228.28 279.779 226.232C279.779 224.099 278.968 222.371 277.347 221.048C275.726 219.725 273.742 218.744 271.395 218.104C269.091 217.421 266.766 216.739 264.419 216.056C262.115 215.331 260.152 214.221 258.531 212.728C256.91 211.235 256.099 209.272 256.099 206.84C256.099 203.555 257.187 201.123 259.363 199.544C261.582 197.923 264.376 197.112 267.747 197.112ZM166.605 310H160.461V265.2H166.605C172.749 265.2 177.954 267.461 182.221 271.984C186.488 276.507 188.621 281.712 188.621 287.6C188.621 293.488 186.488 298.693 182.221 303.216C177.954 307.739 172.749 310 166.605 310ZM166.605 308.08C172.194 308.08 176.93 306.032 180.813 301.936C184.738 297.797 186.701 293.019 186.701 287.6C186.701 282.181 184.738 277.424 180.813 273.328C176.93 269.189 172.194 267.12 166.605 267.12H162.381V308.08H166.605ZM198.143 272.88H200.062V310H198.143V272.88ZM227.117 285.04L235.629 277.936C233.752 275.419 230.381 274.16 225.517 274.16C223.384 274.16 221.592 274.395 220.141 274.864C218.69 275.291 217.346 276.123 216.109 277.36C214.914 278.555 214.018 280.325 213.421 282.672C212.824 284.976 212.525 287.899 212.525 291.44C212.525 294.981 212.824 297.925 213.421 300.272C214.018 302.576 214.914 304.347 216.109 305.584C217.346 306.779 218.69 307.611 220.141 308.08C221.592 308.507 223.384 308.72 225.517 308.72C230.338 308.72 233.688 307.483 235.565 305.008V293.68H237.485V310.576C237.485 318.725 233.752 322.8 226.285 322.8H218.797V320.88H226.285C229.485 320.88 231.832 320.027 233.325 318.32C234.818 316.656 235.565 313.456 235.565 308.72V307.76C233.261 309.68 229.912 310.64 225.517 310.64C220.184 310.64 216.365 309.125 214.061 306.096C211.757 303.067 210.605 298.181 210.605 291.44C210.605 284.699 211.757 279.813 214.061 276.784C216.365 273.755 220.184 272.24 225.517 272.24C231.704 272.24 235.906 274.267 238.125 278.32L230.125 285.04H227.117ZM248.705 272.88H250.625V310H248.705V272.88ZM286.768 272.88V274.8H273.328V310H271.408V274.8H257.968V272.88H286.768ZM297.535 308.08H318.399L305.279 277.168L291.327 310H289.279L305.279 272.24L321.279 310H297.535V308.08ZM349.956 308.08V310H328.58V272.88H330.5V308.08H349.956ZM382.162 306.224C379.815 309.168 375.975 310.64 370.642 310.64C365.309 310.64 361.49 309.125 359.186 306.096C356.882 303.067 355.73 298.181 355.73 291.44C355.73 284.699 356.882 279.813 359.186 276.784C361.49 273.755 365.309 272.24 370.642 272.24C376.829 272.24 381.031 274.267 383.25 278.32L367.57 291.44H364.562L380.754 277.936C378.877 275.419 375.506 274.16 370.642 274.16C368.509 274.16 366.717 274.395 365.266 274.864C363.815 275.291 362.471 276.123 361.234 277.36C360.039 278.555 359.143 280.325 358.546 282.672C357.949 284.976 357.65 287.899 357.65 291.44C357.65 294.981 357.949 297.925 358.546 300.272C359.143 302.576 360.039 304.347 361.234 305.584C362.471 306.779 363.815 307.611 365.266 308.08C366.717 308.507 368.509 308.72 370.642 308.72C375.506 308.72 378.877 307.461 380.754 304.944L382.162 306.224ZM402.185 272.112C407.475 272.112 411.23 273.285 413.449 275.632L412.169 277.04C410.121 275.035 406.878 274.032 402.441 274.032C395.785 274.032 392.457 276.677 392.457 281.968C392.457 284.016 393.267 285.659 394.889 286.896C396.51 288.091 398.473 289.008 400.777 289.648C403.123 290.288 405.449 290.971 407.753 291.696C410.099 292.379 412.083 293.509 413.705 295.088C415.326 296.624 416.137 298.651 416.137 301.168C416.137 304.112 414.921 306.459 412.489 308.208C410.057 309.957 406.537 310.832 401.929 310.832C399.667 310.832 397.427 310.533 395.209 309.936C393.033 309.339 391.411 308.464 390.345 307.312L391.625 305.904C393.801 307.909 397.15 308.912 401.673 308.912C405.811 308.912 408.926 308.144 411.017 306.608C413.15 305.072 414.217 303.28 414.217 301.232C414.217 299.099 413.406 297.371 411.785 296.048C410.163 294.725 408.179 293.744 405.833 293.104C403.529 292.421 401.203 291.739 398.857 291.056C396.553 290.331 394.59 289.221 392.969 287.728C391.347 286.235 390.536 284.272 390.536 281.84C390.536 278.555 391.625 276.123 393.801 274.544C396.019 272.923 398.814 272.112 402.185 272.112Z" fill="white"/>
<path d="M148.96 167.584C146.656 167.584 144.8 167.072 143.392 166.048C141.728 164.896 140.896 163.232 140.896 161.056C140.896 158.581 141.941 156.299 144.032 154.208C145.867 152.373 148.085 151.093 150.688 150.368C152.821 149.771 155.595 149.323 159.008 149.024C162.421 148.725 166.453 148.597 171.104 148.64C172.299 147.232 173.28 146.08 174.048 145.184C174.816 144.245 175.477 143.435 176.032 142.752C176.587 142.069 177.12 141.408 177.632 140.768C178.187 140.085 178.805 139.275 179.488 138.336L183.072 133.536C183.285 133.323 183.477 133.216 183.648 133.216C184.203 133.216 184.48 133.472 184.48 133.984C184.48 134.027 184.437 134.176 184.352 134.432L180.384 139.744C180.128 140.085 179.701 140.64 179.104 141.408C178.507 142.176 177.867 143.029 177.184 143.968C176.501 144.907 175.819 145.803 175.136 146.656C174.496 147.509 173.984 148.192 173.6 148.704C174.667 148.747 175.712 148.853 176.736 149.024C177.803 149.195 178.848 149.387 179.872 149.6C181.067 144.224 182.603 139.147 184.48 134.368C184.779 133.643 185.12 132.853 185.504 132C185.888 131.104 186.4 130.016 187.04 128.736C187.168 128.437 187.744 127.989 188.768 127.392C189.749 126.795 190.411 126.496 190.752 126.496C191.136 126.496 191.328 126.688 191.328 127.072C191.328 127.2 191.221 127.435 191.008 127.776C187.339 133.877 184.331 141.344 181.984 150.176C183.904 150.731 184.864 151.285 184.864 151.84C184.864 152.267 184.629 152.48 184.16 152.48C184.117 152.48 183.968 152.437 183.712 152.352C183.456 152.224 183.221 152.139 183.008 152.096C182.667 151.925 182.368 151.819 182.112 151.776C181.856 151.691 181.685 151.627 181.6 151.584C181.003 154.144 180.533 156.448 180.192 158.496C179.893 160.501 179.744 162.251 179.744 163.744C179.744 165.195 179.957 165.92 180.384 165.92C180.768 165.92 181.28 165.664 181.92 165.152C182.603 164.597 183.008 164.32 183.136 164.32C183.52 164.32 183.712 164.555 183.712 165.024C183.712 165.493 183.307 165.963 182.496 166.432C181.685 166.944 180.981 167.2 180.384 167.2C178.763 167.2 177.952 165.856 177.952 163.168C177.952 161.803 178.08 160.117 178.336 158.112C178.592 156.107 178.997 153.803 179.552 151.2C178.485 151.029 177.312 150.923 176.032 150.88C174.795 150.795 173.451 150.731 172 150.688C171.36 151.499 170.635 152.373 169.824 153.312C169.013 154.251 168.053 155.296 166.944 156.448C165.536 157.984 164.363 159.221 163.424 160.16C162.485 161.099 161.675 161.867 160.992 162.464C160.352 163.019 159.712 163.531 159.072 164C155.872 166.389 152.501 167.584 148.96 167.584ZM148.192 165.088C151.392 165.088 154.571 164.021 157.728 161.888C158.709 161.205 159.84 160.288 161.12 159.136C162.443 157.941 163.851 156.555 165.344 154.976C165.899 154.379 166.496 153.76 167.136 153.12C167.776 152.437 168.501 151.627 169.312 150.688H167.52C163.851 150.688 160.629 150.816 157.856 151.072C155.083 151.285 152.757 151.648 150.88 152.16C149.813 152.459 148.789 152.885 147.808 153.44C146.869 153.995 146.037 154.613 145.312 155.296C143.52 157.003 142.624 158.88 142.624 160.928C142.624 162.251 143.221 163.317 144.416 164.128C145.44 164.768 146.699 165.088 148.192 165.088ZM200.544 164.384C198.112 164.384 196.896 162.848 196.896 159.776C196.896 158.411 197.109 157.088 197.536 155.808C198.005 154.528 198.539 153.355 199.136 152.288C197.643 153.611 196.064 155.253 194.4 157.216C192.779 159.136 191.179 161.291 189.6 163.68C189.344 164.064 189.152 164.256 189.024 164.256C188.64 164.256 188.448 163.872 188.448 163.104C188.448 162.933 188.491 162.763 188.576 162.592C189.045 161.44 189.515 160.117 189.984 158.624C190.453 157.088 190.923 155.296 191.392 153.248C191.477 152.821 191.563 152.395 191.648 151.968C191.733 151.541 191.861 150.987 192.032 150.304C192.117 150.048 192.416 149.749 192.928 149.408C193.355 149.109 193.781 148.96 194.208 148.96C194.507 148.96 194.656 149.088 194.656 149.344C194.656 149.557 194.4 150.475 193.888 152.096C193.376 153.717 192.629 156.043 191.648 159.072C191.904 158.731 192.437 158.112 193.248 157.216C194.059 156.277 195.125 155.083 196.448 153.632L200.416 149.28C200.715 148.981 201.056 148.832 201.44 148.832C202.421 148.832 202.912 149.323 202.912 150.304C202.912 150.517 202.827 150.773 202.656 151.072C200.267 154.997 199.072 158.112 199.072 160.416C199.072 162.037 199.84 162.848 201.376 162.848C202.485 162.848 203.765 162.229 205.216 160.992C205.813 160.523 206.325 160.011 206.752 159.456C207.221 158.859 207.712 158.219 208.224 157.536C209.12 156.299 209.632 155.68 209.76 155.68C209.888 155.68 209.952 155.808 209.952 156.064C209.952 156.32 209.824 156.683 209.568 157.152C206.667 161.973 203.659 164.384 200.544 164.384ZM208.821 164C207.498 164 206.837 163.275 206.837 161.824C206.837 159.179 208.181 156.128 210.869 152.672C212.277 150.837 213.663 149.472 215.029 148.576C216.394 147.637 217.738 147.232 219.061 147.36C219.786 144.885 220.533 142.581 221.301 140.448C222.069 138.315 222.901 136.331 223.797 134.496C226.698 128.523 229.535 125.536 232.309 125.536C234.101 125.536 234.997 126.56 234.997 128.608C234.997 133.088 229.898 141.323 219.701 153.312C219.445 154.763 219.317 156.171 219.317 157.536C219.317 160.779 219.999 162.4 221.365 162.4C222.261 162.4 223.562 161.376 225.269 159.328C226.975 157.237 227.914 156.192 228.085 156.192C228.213 156.192 228.277 156.299 228.277 156.512C228.277 156.768 228.17 157.067 227.957 157.408C225.311 161.717 222.709 163.872 220.149 163.872C217.93 163.872 216.821 162.187 216.821 158.816C216.821 157.749 216.949 156.512 217.205 155.104C213.877 161.035 211.082 164 208.821 164ZM220.085 151.456C228.362 140.235 232.501 132.661 232.501 128.736C232.501 127.797 232.117 127.328 231.349 127.328C229.215 127.328 226.847 130.805 224.245 137.76C222.495 142.368 221.109 146.933 220.085 151.456ZM209.909 162.016C210.89 162.016 212.106 161.056 213.557 159.136C213.855 158.795 214.218 158.261 214.645 157.536C215.114 156.768 215.669 155.829 216.309 154.72C217.034 153.483 217.546 152.501 217.845 151.776C218.186 151.051 218.357 150.581 218.357 150.368C218.357 150.283 218.335 150.24 218.293 150.24C218.293 150.24 218.271 150.219 218.229 150.176C218.186 150.048 217.951 149.984 217.525 149.984C215.818 149.984 213.962 151.307 211.957 153.952C209.951 156.597 208.949 158.816 208.949 160.608C208.949 161.547 209.269 162.016 209.909 162.016ZM237.242 165.024C235.791 165.024 234.767 164.64 234.17 163.872C233.615 163.104 233.338 162.123 233.338 160.928C233.338 159.947 233.487 158.923 233.786 157.856C234.127 156.747 234.533 155.723 235.002 154.784C235.471 153.845 235.877 153.099 236.218 152.544C236.09 152.587 235.962 152.629 235.834 152.672C235.706 152.672 235.557 152.672 235.386 152.672C234.789 152.672 234.127 152.459 233.402 152.032C232.634 151.52 232.25 150.987 232.25 150.432C231.994 151.029 231.631 151.712 231.162 152.48C230.735 153.248 230.223 154.08 229.626 154.976C228.047 157.451 227.002 158.688 226.49 158.688C226.319 158.688 226.234 158.603 226.234 158.432C226.234 158.261 226.362 158.005 226.618 157.664C227.429 156.555 228.239 155.275 229.05 153.824C229.903 152.373 230.757 150.752 231.61 148.96C231.567 148.747 231.525 148.533 231.482 148.32C231.482 148.107 231.482 147.851 231.482 147.552C231.482 146.571 231.674 145.44 232.058 144.16C232.527 142.539 233.103 141.728 233.786 141.728C234.213 141.728 234.618 142.112 235.002 142.88C235.13 143.179 235.237 143.477 235.322 143.776C235.407 144.032 235.45 144.309 235.45 144.608C235.45 145.632 234.575 147.189 232.826 149.28C233.21 150.603 233.957 151.264 235.066 151.264C235.877 151.264 236.623 150.859 237.306 150.048C238.031 149.195 238.543 148.768 238.842 148.768C239.226 148.768 239.567 148.917 239.866 149.216C240.165 149.515 240.314 149.899 240.314 150.368C240.314 150.325 240.037 150.709 239.482 151.52C238.97 152.331 238.373 153.461 237.69 154.912C237.007 156.363 236.517 157.6 236.218 158.624C235.962 159.648 235.834 160.565 235.834 161.376C235.834 162.869 236.538 163.616 237.946 163.616C239.311 163.616 241.039 162.571 243.13 160.48C243.813 159.755 244.602 158.837 245.498 157.728C246.607 156.363 247.162 155.68 247.162 155.68C247.333 155.68 247.418 155.808 247.418 156.064C247.418 156.405 247.29 156.768 247.034 157.152C246.437 158.091 245.775 159.029 245.05 159.968C244.367 160.864 243.727 161.589 243.13 162.144C241.167 164.064 239.205 165.024 237.242 165.024ZM250.293 164.384C248.885 164.384 247.648 163.979 246.581 163.168C245.514 162.357 244.981 160.992 244.981 159.072C244.981 157.92 245.237 156.683 245.749 155.36C246.261 153.995 246.944 152.715 247.797 151.52C248.693 150.325 249.674 149.344 250.741 148.576C251.808 147.808 252.896 147.424 254.005 147.424C254.432 147.424 254.794 147.573 255.093 147.872C255.434 148.171 255.605 148.619 255.605 149.216C255.605 150.539 254.602 152.139 252.597 154.016C251.786 154.784 250.933 155.467 250.037 156.064C249.184 156.661 248.394 157.088 247.669 157.344C247.498 157.899 247.413 158.539 247.413 159.264C247.413 160.245 247.648 161.141 248.117 161.952C248.586 162.763 249.333 163.168 250.357 163.168C251.637 163.168 252.81 162.805 253.877 162.08C254.944 161.355 255.925 160.48 256.821 159.456C257.717 158.389 258.506 157.408 259.189 156.512C259.488 156.085 259.786 155.872 260.085 155.872C260.256 155.872 260.341 155.957 260.341 156.128C260.341 156.213 260.32 156.32 260.277 156.448C260.234 156.533 260.192 156.619 260.149 156.704C259.424 157.728 258.592 158.837 257.653 160.032C256.714 161.227 255.648 162.251 254.453 163.104C253.258 163.957 251.872 164.384 250.293 164.384ZM248.117 156.064C249.226 155.595 250.378 154.763 251.573 153.568C252.981 152.203 253.685 151.008 253.685 149.984C253.685 149.472 253.429 149.216 252.917 149.216C252.234 149.216 251.296 150.197 250.101 152.16C249.034 153.781 248.373 155.083 248.117 156.064ZM259.074 164.192C257.751 164.192 257.09 163.467 257.09 162.016C257.09 159.84 258.156 157.173 260.29 154.016C262.38 150.901 264.45 148.981 266.498 148.256C266.882 148.128 267.244 148.021 267.586 147.936C267.927 147.851 268.268 147.808 268.61 147.808C270.146 147.808 271.255 148.341 271.938 149.408C272.066 149.579 272.13 149.728 272.13 149.856C272.13 149.941 271.98 150.005 271.682 150.048C271.426 150.091 271.212 150.24 271.042 150.496C270.018 152.16 269.506 154.656 269.506 157.984C269.506 161.056 270.167 162.592 271.49 162.592C272.386 162.592 273.687 161.653 275.394 159.776C275.65 159.52 276.012 159.072 276.482 158.432C276.951 157.792 277.42 157.152 277.89 156.512C278.359 155.829 278.679 155.381 278.85 155.168C278.978 155.04 279.084 154.976 279.17 154.976C279.34 154.976 279.426 155.125 279.426 155.424C279.426 155.637 279.298 155.936 279.042 156.32C278.103 157.813 277.036 159.264 275.842 160.672C274.647 162.08 273.623 162.997 272.77 163.424C272.002 163.808 271.234 164 270.466 164C267.863 164 266.562 162.165 266.562 158.496C266.562 158.197 266.562 157.899 266.562 157.6C266.604 157.259 266.647 156.917 266.69 156.576C263.788 161.653 261.25 164.192 259.074 164.192ZM260.161 162.272C260.631 162.272 261.186 162.016 261.826 161.504C262.466 160.949 263.127 160.224 263.81 159.328C264.834 157.963 265.794 156.512 266.69 154.976C267.586 153.44 268.375 151.776 269.058 149.984C268.93 149.941 268.738 149.92 268.482 149.92C266.732 149.92 264.962 151.008 263.17 153.184C260.567 156.299 259.266 158.88 259.266 160.928C259.266 161.824 259.564 162.272 260.161 162.272ZM279.171 150.496C279.085 150.496 279.043 150.453 279.043 150.368C279.043 150.283 279.064 150.197 279.107 150.112C279.149 150.027 279.277 149.856 279.491 149.6C279.704 149.301 280.067 148.811 280.579 148.128C281.133 147.403 281.816 146.443 282.627 145.248C281.859 145.248 281.475 144.779 281.475 143.84C281.475 142.688 282.2 142.112 283.651 142.112C284.504 142.112 284.931 142.645 284.931 143.712C284.931 144.523 284.163 145.867 282.627 147.744C281.091 149.579 279.939 150.496 279.171 150.496ZM293.441 165.472C291.435 165.472 289.622 164.747 288.001 163.296C286.337 161.803 285.505 160.096 285.505 158.176C285.505 156.939 285.846 156.32 286.529 156.32C286.955 156.32 287.403 156.619 287.873 157.216C288.47 156.704 289.537 155.104 291.073 152.416C291.755 151.264 292.502 150.091 293.312 148.896C294.123 147.659 294.998 146.635 295.937 145.824C296.875 144.971 297.857 144.544 298.881 144.544C299.691 144.544 300.374 144.736 300.929 145.12C301.569 145.504 301.889 145.973 301.889 146.528C301.889 146.869 301.398 147.04 300.417 147.04C299.478 147.04 298.582 147.339 297.729 147.936C296.918 148.576 296.513 149.365 296.513 150.304C296.513 150.645 296.577 151.008 296.705 151.392L298.305 155.552C298.646 156.363 298.859 157.152 298.945 157.92C299.073 158.645 299.137 159.307 299.137 159.904C301.611 159.52 303.723 158.261 305.473 156.128C305.558 156 305.665 155.936 305.793 155.936C306.049 155.936 306.177 156.107 306.177 156.448C306.177 156.533 306.155 156.619 306.113 156.704C306.113 156.789 306.091 156.875 306.049 156.96C304.641 159.179 302.273 160.608 298.945 161.248C298.817 161.931 298.582 162.528 298.241 163.04C297.899 163.552 297.494 163.979 297.025 164.32C295.958 165.088 294.763 165.472 293.441 165.472ZM296.897 160.224V159.584C296.897 159.115 296.79 158.475 296.577 157.664C296.406 156.853 296.129 155.808 295.745 154.528C295.361 153.248 295.062 152.096 294.849 151.072C294.678 150.005 294.614 149.323 294.657 149.024C293.547 150.816 292.438 152.523 291.329 154.144C290.262 155.723 289.302 157.003 288.449 157.984C289.771 158.624 291.179 159.136 292.673 159.52C294.166 159.904 295.574 160.139 296.897 160.224ZM292.609 163.68C293.462 163.68 294.294 163.531 295.105 163.232C295.958 162.891 296.534 162.293 296.833 161.44C294.913 161.44 293.121 161.248 291.457 160.864C289.835 160.48 288.534 159.883 287.553 159.072L287.169 159.456C288.321 162.272 290.134 163.68 292.609 163.68Z" fill="white"/>
</svg>
